<?xml version="1.0" encoding="UTF-8" standalone="no"?>
<!-- Created with Inkscape (http://www.inkscape.org/) -->

<svg
   width="800"
   height="430"
   viewBox="0 0 211.66666 113.77084"
   version="1.1"
   id="svg1"
   sodipodi:docname="marsho-new.svg"
   inkscape:version="1.3.2 (091e20e, 2023-11-25, custom)"
   xmlns:inkscape="http://www.inkscape.org/namespaces/inkscape"
   xmlns:sodipodi="http://sodipodi.sourceforge.net/DTD/sodipodi-0.dtd"
   xmlns="http://www.w3.org/2000/svg"
   xmlns:svg="http://www.w3.org/2000/svg"
   xmlns:rdf="http://www.w3.org/1999/02/22-rdf-syntax-ns#"
   xmlns:cc="http://creativecommons.org/ns#"
   xmlns:dc="http://purl.org/dc/elements/1.1/">
  <title
     id="title63">Marsho New Logo</title>
  <sodipodi:namedview
     id="namedview1"
     pagecolor="#ffffff"
     bordercolor="#000000"
     borderopacity="0.25"
     inkscape:showpageshadow="2"
     inkscape:pageopacity="0.0"
     inkscape:pagecheckerboard="0"
     inkscape:deskcolor="#d1d1d1"
     inkscape:document-units="mm"
     inkscape:zoom="1.8171179"
     inkscape:cx="343.95127"
     inkscape:cy="228.6588"
     inkscape:window-width="2880"
     inkscape:window-height="1514"
     inkscape:window-x="-11"
     inkscape:window-y="-11"
     inkscape:window-maximized="1"
     inkscape:current-layer="layer1" />
  <defs
     id="defs1">
    <inkscape:path-effect
       effect="spiro"
       id="path-effect6"
       is_visible="true"
       lpeversion="1" />
    <inkscape:path-effect
       effect="spiro"
       id="path-effect5"
       is_visible="true"
       lpeversion="1" />
    <inkscape:path-effect
       effect="spiro"
       id="path-effect4"
       is_visible="true"
       lpeversion="1" />
    <inkscape:path-effect
       effect="spiro"
       id="path-effect48"
       is_visible="true"
       lpeversion="1" />
    <inkscape:path-effect
       effect="spiro"
       id="path-effect3"
       is_visible="true"
       lpeversion="1" />
  </defs>
  <g
     inkscape:label="图层 1"
     inkscape:groupmode="layer"
     id="layer1">
    <g
       id="g9"
       transform="translate(2.7665148,-44.992265)">
      <g
         id="g5"
         transform="matrix(-4.028127,5.0356738,-5.0356738,-4.028127,1412.2503,333.76865)"
         inkscape:label="marshmallow">
        <path
           style="fill:#e9afaf;fill-opacity:1;stroke:#e9afaf;stroke-width:0.0514691;stroke-linecap:round;stroke-linejoin:bevel;stroke-dasharray:none;stroke-dashoffset:0;stroke-opacity:1;paint-order:normal"
           d="m 101.03428,181.79898 0.13178,0.20005"
           id="path21"
           inkscape:label="ear-back-1" />
        <path
           style="fill:#e9afaf;fill-opacity:1;stroke:#e9afaf;stroke-width:0.0632468;stroke-linecap:round;stroke-linejoin:bevel;stroke-dasharray:none;stroke-dashoffset:0;stroke-opacity:1;paint-order:normal"
           d="m 102.01471,182.21038 -0.13192,0.26315"
           id="path21-3"
           inkscape:label="ear-back-2" />
        <path
           style="fill:none;fill-opacity:1;stroke:#ffaaaa;stroke-width:0.0444733;stroke-linecap:round;stroke-linejoin:round;stroke-dasharray:none;stroke-dashoffset:0;stroke-opacity:1;paint-order:normal"
           d="m 100.9129,182.18208 0.12066,-0.3911 0.23663,0.49533"
           id="path8"
           inkscape:label="ear-1" />
        <path
           style="fill:#666666;fill-opacity:1;stroke:none;stroke-width:0.0716997;stroke-linecap:round;stroke-linejoin:bevel;stroke-dasharray:none;stroke-dashoffset:0;stroke-opacity:1;paint-order:normal"
           d="m 101.07007,181.91766 -0.0854,-0.004 0.0224,0.0308 -0.0616,0.0182 0.0406,0.01 -0.0462,0.0112 0.15544,-0.0154 z"
           id="path23"
           inkscape:label="hair-1" />
        <path
           style="fill:none;fill-opacity:1;stroke:#ffaaaa;stroke-width:0.068643;stroke-linecap:round;stroke-linejoin:round;stroke-dasharray:none;stroke-dashoffset:0;stroke-opacity:1;paint-order:normal"
           d="m 101.613,182.29944 0.39904,-0.091 -0.31066,0.45259"
           id="path8-7"
           inkscape:label="ear-front-2" />
        <path
           style="fill:none;fill-opacity:1;stroke:#ffaaaa;stroke-width:0.33673;stroke-linecap:round;stroke-linejoin:round;stroke-dasharray:none;stroke-opacity:1;paint-order:normal"
           d="m 100.59401,183.65866 -1.206895,1.53632"
           id="path2"
           inkscape:label="stick" />
        <path
           style="fill:#666666;fill-opacity:1;stroke:none;stroke-width:0.0716997;stroke-linecap:round;stroke-linejoin:bevel;stroke-dasharray:none;stroke-dashoffset:0;stroke-opacity:1;paint-order:normal"
           d="m 101.89358,182.32001 -0.0391,-0.0761 -0.0155,0.0348 -0.0466,-0.0443 0.0118,0.0401 -0.0328,-0.0344 0.0911,0.12691 z"
           id="path23-0"
           inkscape:label="hair-2" />
        <path
           style="fill:#ffd5d5;fill-opacity:1;stroke:#ffd5d5;stroke-width:0.999774;stroke-linecap:round;stroke-linejoin:round;stroke-dasharray:none;stroke-dashoffset:0;stroke-opacity:1"
           d="M 7.099506,10.115494 6.9770044,8.7427564 C 6.8665615,8.8265179 6.7778633,8.9387034 6.7218385,9.06549 c -0.056025,0.1267867 -0.079255,0.2679011 -0.066829,0.4059563 0.012426,0.1380551 0.060482,0.2727533 0.1382462,0.3874978 0.077764,0.1147446 0.1850698,0.2092879 0.3086948,0.2719819 0.14693,0.07451 0.3165948,0.103415 0.4799082,0.08175 0.1633133,-0.02166 0.3195761,-0.0938 0.4419997,-0.204038 0.2679301,0.228548 0.6374896,0.333162 0.9854595,0.278962 0.224526,-0.03497 0.4387471,-0.133795 0.611084,-0.2819 C 9.7927385,9.8575977 9.9226522,9.6606738 9.9909916,9.4439604 10.495485,9.4250538 10.989041,9.1980659 11.331735,8.8273483 11.674429,8.4566308 11.862003,7.9467906 11.841279,7.4423688 11.816725,6.8447364 11.495284,6.2665439 11.000633,5.9302582 11.045271,5.5801946 10.999056,5.2189362 10.867731,4.8913834 10.710018,4.4980129 10.42905,4.1550955 10.074375,3.9231044 9.7197008,3.6911132 9.2929308,3.5711019 8.8693256,3.5842343 8.4457204,3.5973667 8.0272038,3.7435831 7.6875808,3.9970985 7.3479578,4.2506138 7.0887707,4.6102768 6.955727,5.0126612 6.6697073,4.7978514 6.2730892,4.7396557 5.9374163,4.8632446 5.6017434,4.9868334 5.3375562,5.2883261 5.25912,5.6373222 5.2046933,5.8794896 5.2374151,6.1402944 5.3499801,6.3615102 5.462545,6.582726 5.6541133,6.7627023 5.8819159,6.8612582 5.7653517,6.7605319 5.6157873,6.6986431 5.4621317,6.6875542 5.3084761,6.6764653 5.1515751,6.7162374 5.0217558,6.799183 4.8919366,6.8821286 4.7899136,7.007791 4.7354069,7.1518813 c -0.054507,0.1440904 -0.061197,0.3058154 -0.018779,0.4539155 0.033764,0.1178827 0.098178,0.2268445 0.1851841,0.3132524 0.087006,0.086408 0.1964089,0.1500698 0.3145215,0.1830203 0.1181127,0.032951 0.2446718,0.035116 0.3638427,0.00623 C 5.6993475,8.0794063 5.810865,8.0195251 5.9007763,7.9361448 5.5743484,8.1304281 5.3462717,8.481591 5.3015117,8.8588147 c -0.026365,0.222195 0.00865,0.4513593 0.1001611,0.6555438 0.091512,0.2041844 0.2392664,0.3828206 0.4226643,0.5110035 0.183398,0.128183 0.4019287,0.205556 0.6251256,0.221332 0.2231968,0.01578 0.4504383,-0.03009 0.6500433,-0.1312 z"
           id="path3"
           transform="matrix(0.33672944,0,0,0.33672944,98.119294,180.91998)"
           inkscape:label="marshmallow" />
        <path
           style="fill:#ffffff;fill-opacity:1;stroke:none;stroke-width:0.000188829;stroke-linecap:round;stroke-linejoin:round;stroke-dasharray:none;stroke-dashoffset:0;stroke-opacity:1;paint-order:normal"
           d="m 101.04184,181.91589 c -0.0118,-6.4e-4 -0.0217,-10e-4 -0.022,-0.002 -2.5e-4,-2.5e-4 0.004,-0.0139 0.009,-0.0303 0.005,-0.0164 0.01,-0.0296 0.01,-0.0292 6.7e-4,6.9e-4 0.0276,0.0564 0.0292,0.0604 7.5e-4,0.002 5.7e-4,0.002 -0.002,0.002 -0.001,-7e-5 -0.0123,-6.5e-4 -0.0241,-0.001 z"
           id="path24"
           inkscape:label="ear-blank-1" />
        <path
           style="fill:#ffffff;fill-opacity:1;stroke:none;stroke-width:0.000188829;stroke-linecap:round;stroke-linejoin:round;stroke-dasharray:none;stroke-dashoffset:0;stroke-opacity:1;paint-order:normal"
           d="m 101.88249,182.29738 c -0.006,-0.0115 -0.0102,-0.0208 -0.01,-0.0211 0.001,-6.6e-4 0.0577,-0.0137 0.059,-0.0136 4.8e-4,5e-5 -0.007,0.0108 -0.0157,0.024 -0.009,0.0131 -0.0177,0.0258 -0.0191,0.0281 -0.001,0.002 -0.003,0.004 -0.003,0.004 -3.9e-4,-2.9e-4 -0.005,-0.01 -0.0112,-0.0211 z"
           id="path25"
           inkscape:label="ear-blank-2" />
      </g>
      <path
         style="fill:none;stroke:#f4d7d7;stroke-width:3.43958;stroke-linecap:round;stroke-linejoin:round;stroke-dasharray:none;stroke-opacity:1"
         d="m 185.88542,124.65666 c 2.90926,-1.57448 6.44846,-1.94225 9.61929,-0.99957 3.17082,0.94267 5.93428,3.18421 7.51088,6.09232 1.2277,2.26456 1.73932,4.89501 1.55195,7.46413 -0.18737,2.56913 -1.06177,5.07266 -2.42779,7.25658 -2.73203,4.36784 -7.34505,7.34773 -12.28199,8.82035 -4.93695,1.47262 -10.19524,1.54768 -15.32226,1.04201 -5.12702,-0.50566 -10.17935,-1.57636 -15.27128,-2.36015 -33.23865,-5.11636 -67.715104,2.03104 -100.561507,-5.18692 C 42.279512,143.17644 26.25943,135.68594 15.116337,123.09318 9.5447901,116.79679 5.2827469,109.28755 3.123112,101.16213 0.96347715,93.036703 0.95119639,84.296151 3.4723305,76.275524 5.7017509,69.182943 9.795902,62.855556 13.426344,56.367497 c 1.796093,-3.209845 3.487397,-6.478325 5.070313,-9.798481 l 4.910616,10.639671 23.038979,3.642039 5.115223,-9.698468 4.174025,12.194698 c 20.328235,-8.359242 43.04378,-10.816446 64.68935,-6.997628 14.36747,2.53478 28.24965,7.792774 40.69128,15.412167"
         id="path6"
         transform="translate(0.06334621,1.4837428)" />
      <path
         style="font-size:46.5236px;font-family:'FOT-Yuruka Std';-inkscape-font-specification:'FOT-Yuruka Std';fill:#ff8080;stroke:#ff8080;stroke-width:0.72693;stroke-linecap:round;stroke-linejoin:round"
         d="m 63.404894,89.511165 c 0.697854,0 1.209614,-0.697854 1.256137,-1.349184 l 1.581803,-36.055792 v -0.09305 c 0,-0.511759 -0.279142,-1.16309 -1.16309,-1.209613 L 55.821547,50.338293 H 55.7285 c -0.651331,0 -1.395708,0.372188 -1.581803,0.604806 -2.279656,2.698369 -6.652875,9.537339 -10.46781,16.097167 -0.09305,0.13957 -0.139571,0.232618 -0.232618,0.232618 -0.09305,0 -0.139571,-0.04652 -0.232618,-0.186095 -3.814935,-6.559828 -8.188154,-13.445321 -10.46781,-16.14369 -0.186095,-0.232618 -1.116567,-0.604806 -1.767897,-0.604806 h -0.09305 l -9.16515,0.511759 c -0.883948,0.09305 -1.16309,0.790901 -1.16309,1.302661 l 1.814421,36.009268 c 0,0.65133 0.511759,1.349184 1.256137,1.349184 h 0.04652 l 8.932532,-0.744378 c 1.023519,-0.09305 1.67485,-1.070042 1.67485,-1.581802 v -0.04652 L 32.187552,67.365935 V 67.04027 c 0,-0.279142 0.04652,-0.465237 0.13957,-0.465237 0.139571,0 0.279142,0.139571 0.465236,0.372189 0.883949,1.209614 4.280172,8.188154 6.606352,12.468326 0.279141,0.558283 0.744377,1.256137 1.581802,1.256137 l 4.791931,-0.186095 c 1.023519,-0.04652 1.535279,-0.697854 1.721373,-1.070042 2.279657,-4.280172 5.67588,-11.537854 6.513305,-12.700944 0.186094,-0.232618 0.325665,-0.372189 0.418712,-0.372189 0.139571,0 0.186094,0.186095 0.186094,0.51176 v 0.232618 l -2.186609,20.098196 v 0.04652 c 0,0.511759 0.465236,1.535278 1.488755,1.581802 l 9.444292,0.697854 z m 39.358986,-6.187639 c 0.0931,-0.186094 0.13957,-0.325665 0.13957,-0.418712 0,-0.465236 -0.51176,-0.744378 -0.977,-0.976996 -1.48875,-0.790901 -2.000511,-2.791416 -2.000511,-5.582832 0,-3.070558 0.651331,-7.118111 1.302661,-11.351759 v -0.232618 c 0,-0.558283 -0.32567,-1.16309 -1.535279,-1.256137 L 91.644738,62.806618 H 91.41212 c -0.558283,0 -0.976995,0.139571 -1.256137,0.465236 -1.81442,-0.790901 -4.094077,-1.302661 -6.420257,-1.302661 -9.211673,0 -13.166179,8.048583 -13.166179,13.631415 0,7.4903 6.699398,13.445321 14.46884,13.445321 2.372703,0 4.884978,-0.558283 7.304205,-1.81442 2.32618,2.186609 5.582832,2.930986 6.048068,2.930986 0.604807,0 1.070043,-0.418712 1.488756,-1.209613 z M 89.132464,79.927303 c -1.070043,0.465236 -2.093562,0.651331 -2.977511,0.651331 -3.024034,0 -4.838454,-2.233133 -4.838454,-4.838455 0,-2.372704 1.628326,-5.210643 4.559313,-5.210643 1.349184,0 2.605321,0.65133 3.163605,1.581802 -0.09305,1.395708 -0.139571,2.651845 -0.139571,3.861459 0,1.442232 0.09305,2.744892 0.232618,3.954506 z m 29.263356,9.072102 c 0.51176,0 0.93047,-0.418712 0.93047,-0.930472 v -0.09305 l -0.88394,-16.469355 c 0.74437,-0.186094 1.3957,-0.279141 2.04703,-0.279141 0.7909,0 1.58181,0.13957 2.32618,0.372188 0.1861,0.04652 0.37219,0.09305 0.51176,0.09305 0.55829,0 1.02352,-0.325666 1.16309,-0.976996 l 1.34919,-6.559828 c 0.0465,-0.232618 0.093,-0.418712 0.093,-0.604807 0,-0.558283 -0.27915,-0.930472 -0.977,-1.116566 -1.44223,-0.325665 -2.97751,-0.51176 -4.55931,-0.51176 -2.32618,0 -4.74541,0.372189 -7.25769,1.16309 l -5.39673,0.279142 c -0.51176,0 -0.93048,0.465236 -0.93048,1.023519 l 1.30267,24.192273 c 0,0.558283 0.46523,0.930472 1.02351,0.930472 z"
         id="text1"
         inkscape:label="Mar"
         transform="rotate(9.1188688)"
         aria-label="Mar" />
      <path
         d="m 137.13586,79.0995 c 6.8072,0 15.9004,-3.2512 15.9004,-9.2456 0,-1.9304 -1.016,-4.216399 -3.3528,-6.756399 -1.9304,-2.1336 -2.6924,-3.0988 -2.6924,-3.9624 0,-1.016 1.1684,-2.032 4.2164,-2.032 h 0.2032 c 0.6604,0 1.2192,-0.2032 1.2192,-0.762 0,-0.1524 0,-0.3048 -0.1016,-0.508 l -2.286,-5.8928 c -0.3556,-0.9144 -0.8636,-1.1176 -2.8448,-1.1176 -6.6548,0 -14.9352,3.048 -14.9352,8.7884 0,1.9304 0.9144,4.1148 3.1496,6.6548 l 1.3716,1.524 c 0.7112,0.914399 1.3716,1.727199 1.3716,2.387599 0,1.2192 -1.4224,2.6416 -4.4196,2.6924 -0.6096,0 -1.6256,0.1016 -1.6256,0.8636 0,0.1016 0.0508,0.254 0.1016,0.4064 l 2.2352,5.8928 c 0.3048,0.8636 0.8128,1.0668 1.9304,1.0668 z m 56.94681,-4.572 c 0.3556,-0.3048 0.4572,-0.6096 0.4572,-0.8636 0,-0.5588 -0.5588,-1.0668 -0.8636,-1.3208 -2.4892,-1.9812 -3.1496,-4.5212 -3.2004,-7.823199 -0.1524,-10.0584 -7.7724,-15.748 -17.3228,-15.748 -0.5588,0 -1.1684,0 -1.778,0.0508 v -13.208 c 0,-0.5588 -0.4572,-1.0668 -1.016,-1.0668 h -10.16 c -0.6096,0 -1.0668,0.508 -1.0668,1.0668 V 77.1691 c 0,0.6096 0.4572,1.0668 1.0668,1.0668 h 10.16 c 0.5588,0 1.016,-0.4572 1.016,-1.0668 V 58.728701 h 0.254 c 3.6576,0 6.5024,2.1844 6.5024,8.331199 0,10.3124 9.398,12.0396 9.6012,12.0396 0.4572,0 0.9652,-0.1524 1.524,-0.6096 z"
         id="text2"
         style="font-size:50.8px;font-family:'FOT-Yuruka Std';-inkscape-font-specification:'FOT-Yuruka Std';fill:#ffaaaa;stroke:#ffaaaa;stroke-width:0.79375;stroke-linecap:round;stroke-linejoin:round"
         inkscape:label="sh"
         transform="rotate(15)"
         aria-label="sh" />
      <path
         d="m 234.12925,7.0656347 c 0,-6.60399987 -4.826,-15.3923997 -16.0528,-15.3923997 -8.9408,0 -16.764,5.4355999 -16.764,15.9003997 0,8.9408003 7.2644,14.9351993 15.5448,14.9351993 7.2136,0 17.272,-5.537199 17.272,-15.4431993 z m -16.0528,5.7404003 c -2.8956,0 -5.6388,-2.3368 -5.6388,-5.8420003 0,-2.2859999 1.2192,-5.8927999 5.4864,-5.8927999 5.1816,0 5.3848,4.9275999 5.3848,5.8927999 0,2.8956 -1.6256,5.8420003 -5.2324,5.8420003 z"
         id="text3"
         style="font-size:50.8px;font-family:'FOT-Yuruka Std';-inkscape-font-specification:'FOT-Yuruka Std';fill:#ff8080;stroke:#ff8080;stroke-width:0.79375;stroke-linecap:round;stroke-linejoin:round"
         inkscape:label="o"
         transform="rotate(30)"
         aria-label="o" />
      <g
         id="g3"
         transform="rotate(4.9307104,201.14161,789.84053)"
         inkscape:label="paw">
        <path
           id="path45"
           style="stroke:#000000;stroke-width:2.30885;stroke-linecap:round;stroke-linejoin:round"
           inkscape:label="paw4"
           transform="rotate(9.9999995)"
           d="m 168.44804,104.57479 a 2.1484985,4.44558 0 0 1 -2.14849,4.44558 2.1484985,4.44558 0 0 1 -2.1485,-4.44558 2.1484985,4.44558 0 0 1 2.1485,-4.44558 2.1484985,4.44558 0 0 1 2.14849,4.44558 z" />
        <path
           id="path47"
           style="stroke:#000000;stroke-width:2.63252;stroke-linecap:round;stroke-linejoin:round"
           inkscape:label="paw2"
           transform="rotate(-40.000001)"
           d="m 15.10926,185.03403 a 2.9141476,5.0272427 0 0 1 -2.914148,5.02724 2.9141476,5.0272427 0 0 1 -2.9141474,-5.02724 2.9141476,5.0272427 0 0 1 2.9141474,-5.02725 2.9141476,5.0272427 0 0 1 2.914148,5.02725 z" />
        <path
           id="path47-4"
           style="stroke:#000000;stroke-width:2.63252;stroke-linecap:round;stroke-linejoin:round"
           inkscape:label="paw3"
           transform="rotate(-9.9999995)"
           d="m 115.15316,151.3795 a 2.9141474,5.0272427 0 0 1 -2.91415,5.02724 2.9141474,5.0272427 0 0 1 -2.91414,-5.02724 2.9141474,5.0272427 0 0 1 2.91414,-5.02724 2.9141474,5.0272427 0 0 1 2.91415,5.02724 z" />
        <path
           id="path47-4-3"
           style="stroke:#000000;stroke-width:2.26484;stroke-linecap:round;stroke-linejoin:round"
           inkscape:label="paw1"
           transform="rotate(-40.000001)"
           d="m 6.8199759,189.98576 a 2.5071344,4.325098 0 0 1 -2.5071345,4.3251 2.5071344,4.325098 0 0 1 -2.5071344,-4.3251 2.5071344,4.325098 0 0 1 2.5071344,-4.32509 2.5071344,4.325098 0 0 1 2.5071345,4.32509 z" />
        <path
           style="fill:#000000;stroke:#000000;stroke-width:8;stroke-linecap:round;stroke-linejoin:round;stroke-dasharray:none;stroke-opacity:1"
           d="m 636.42992,289.9182 c -3.04218,-0.76547 -5.72548,-2.85805 -7.20911,-5.62205 -0.96896,-1.80516 -1.43311,-3.85945 -1.47657,-5.90777 -0.0435,-2.04832 0.32439,-4.09248 0.94296,-6.04565 0.78816,-2.48867 1.98591,-4.84712 3.53044,-6.95167 l 4.28291,-3.29364 c 3.79382,-2.39957 8.65422,-3.03639 12.93817,-1.6952 4.28395,1.34119 7.91346,4.63598 9.66161,8.77059 1.03034,2.43691 1.41546,5.22995 0.59582,7.74557 -0.40982,1.25781 -1.11863,2.42536 -2.09061,3.32273 -0.97198,0.89738 -2.21032,1.51636 -3.52147,1.6922 -1.20838,0.16206 -2.465,-0.0566 -3.54764,-0.61724 l -6.49865,3.10916 c -0.72406,1.39741 -1.76973,2.62694 -3.03275,3.56598 -1.34088,0.99693 -2.92504,1.66416 -4.57511,1.92699 z"
           id="path48"
           transform="matrix(0.38993429,0,0,0.38993429,-112.138,37.229428)"
           inkscape:label="paw5" />
      </g>
      <path
         d="m 134.53882,93.47425 c 0.21848,0 0.30587,0.109241 0.30587,0.327723 0,0.174786 -0.19663,1.573071 -0.34957,2.294061 -0.0218,0.06555 -0.0218,0.109241 -0.0218,0.174786 0,0.218482 0.10924,0.436964 0.41511,0.524357 0.65545,0.24033 3.0369,0.764687 3.10245,0.764687 0.32772,0 0.48066,-0.196634 0.67729,-0.458813 1.61677,-2.18482 2.27221,-5.221719 2.27221,-6.314129 0,-1.551223 -1.52937,-2.119276 -2.64363,-2.119276 -0.10924,0 -0.19663,0.02185 -0.28403,0.02185 l -13.72067,1.267196 c -0.24033,0.02185 -0.43696,0.218482 -0.43696,0.458812 v 0.0437 l 0.34957,3.670497 c 0.0219,0.24033 0.21848,0.415116 0.43697,0.415116 h 0.0437 l 9.80984,-1.070562 z m 4.19485,7.2536 c 0.0874,-0.13109 0.13109,-0.26218 0.13109,-0.39326 0,-0.24034 -0.15293,-0.480665 -0.39326,-0.677299 -1.11426,-0.830232 -5.92087,-2.578088 -6.68555,-2.578088 -0.34957,0 -0.5899,0.24033 -0.80839,0.480661 l -1.96633,2.250364 c -0.0656,0.06555 -0.0874,0.152938 -0.0874,0.240332 0,0.21848 0.21848,0.45881 0.48066,0.61175 0.89578,0.5899 4.54443,2.77472 5.78978,3.49571 0.15293,0.0874 0.30587,0.15294 0.45881,0.15294 0.17478,0 0.37142,-0.0874 0.61175,-0.39327 z m 14.55092,2.35961 c 0,0.50251 0.17478,0.85208 0.72099,0.85208 1.28904,0 6.77294,-1.31089 9.59136,-3.38647 0.21848,-0.15294 0.32772,-0.32773 0.32772,-0.52436 0,-0.24033 -0.0219,-0.327723 -1.68231,-3.189837 -0.13109,-0.24033 -0.26218,-0.327723 -0.43697,-0.327723 -0.0874,0 -0.19663,0.0437 -0.30587,0.06555 -2.55624,0.633597 -2.79657,0.699142 -2.9932,0.699142 -0.21849,0 -0.28403,-0.109241 -0.28403,-0.48066 v -7.603174 c 0,-0.262178 -0.28403,-0.415116 -0.56805,-0.415116 h -0.0437 l -4.19485,0.196634 c -0.28403,0 -0.39327,0.284027 -0.39327,0.568053 z m -5.85532,-1.09241 c 0.15294,0.0437 0.26218,0.0655 0.37142,0.0655 1.02686,0 3.84528,-6.0301 3.84528,-7.275448 0,-0.393267 -0.24033,-0.589901 -0.56805,-0.677294 l -3.69235,-0.983169 c -0.0655,-0.02185 -0.15293,-0.02185 -0.21848,-0.02185 -0.26218,0 -0.48066,0.131089 -0.61175,0.524357 -0.61175,1.769704 -1.7697,4.8503 -2.59993,6.554464 -0.0874,0.19663 -0.15294,0.34957 -0.15294,0.48066 0,0.17478 0.10924,0.30587 0.48066,0.41511 z m 25.27837,-5.96456 c 0.21848,-0.109241 0.30587,-0.262179 0.30587,-0.436964 0,-0.961321 -2.31591,-3.233534 -3.12429,-3.910828 -0.15294,-0.109241 -0.30587,-0.152938 -0.45881,-0.152938 -0.15294,0 -0.32772,0.0437 -0.48066,0.109241 l -3.05875,1.289044 c -0.13109,0.0437 -0.17479,0.152938 -0.17479,0.284027 0,0.24033 0.15294,0.589901 2.55624,4.238551 0.13109,0.174785 0.19664,0.305874 0.39327,0.305874 0.10924,0 0.24033,-0.0437 0.43697,-0.131089 z m 10.05017,-1.354589 c -0.0874,-0.152937 -0.24033,-0.24033 -0.39327,-0.24033 -0.0655,0 -0.13109,0.02185 -0.19663,0.0437 -2.70918,1.70416 -9.50397,4.872149 -12.93414,6.204889 -0.15293,0.0874 -0.26217,0.21848 -0.26217,0.39326 0,0.0656 0.0218,0.13109 0.0655,0.19664 l 2.07558,3.6705 c 0.0874,0.15293 0.24033,0.24033 0.39327,0.24033 0.0655,0 0.13109,-0.0219 0.19663,-0.0437 4.34779,-1.2672 8.76113,-3.56126 12.67196,-6.663698 0.15293,-0.109241 0.24033,-0.262178 0.24033,-0.415116 0,-0.06554 -0.0219,-0.109241 -0.0437,-0.174785 z m -4.74106,-4.347792 c 0.13109,-0.109241 0.19663,-0.24033 0.19663,-0.349571 0,-0.983169 -3.91082,-3.102444 -4.39148,-3.102444 -0.21849,0 -0.41512,0.131089 -0.61175,0.284027 l -2.4907,2.031882 c -0.0874,0.06555 -0.10924,0.152937 -0.10924,0.24033 0,0.284027 0.24033,0.61175 3.64865,3.473864 0.13109,0.109241 0.24033,0.196634 0.37142,0.196634 0.10924,0 0.24033,-0.06555 0.45881,-0.262179 z m 21.87004,13.611431 c 0.56805,-0.0437 0.96132,-0.41512 1.04871,-0.91763 0.54621,-2.9495 1.52937,-8.411553 1.52937,-8.870366 0,-0.917624 -0.80838,-1.704159 -1.85709,-1.791552 l -8.97961,-0.699142 h -0.0437 c -0.19663,0 -0.37142,0.174785 -0.39327,0.371419 l -0.19663,2.556239 v 0.0437 c 0,0.196634 0.15294,0.371419 0.37142,0.393267 l 6.42337,0.524357 c 0.0655,0 0.13109,0.0437 0.13109,0.262179 0,0.284026 -0.61175,4.260399 -0.69914,4.741059 -0.0219,0.17478 -0.0874,0.24033 -0.37142,0.28402 l -5.4839,0.21849 c -0.24033,0 -0.30588,0.19663 -0.30588,0.37142 v 0.0655 l 0.17479,2.447 c 0.0219,0.19663 0.19663,0.39327 0.39327,0.39327 h 0.0437 z m -3.38647,-4.238553 c 0.21848,-0.02185 0.41511,-0.196634 0.41511,-0.393267 v -0.0437 l -0.0874,-2.337757 c -0.0219,-0.262179 -0.32772,-0.415116 -0.52436,-0.415116 l -4.2604,0.131089 c -0.24033,0 -0.30587,0.196634 -0.30587,0.37142 v 0.06554 l 0.0874,2.315909 c 0.0219,0.240331 0.21848,0.415116 0.43697,0.415116 z"
         id="text4"
         style="font-size:21.8482px;font-family:'FOT-Yuruka Std';-inkscape-font-specification:'FOT-Yuruka Std';fill:#ffaaaa;stroke:#ffaaaa;stroke-width:0.7681;stroke-linecap:round;stroke-linejoin:round"
         inkscape:label="マルショ"
         aria-label="マルショ"
         transform="rotate(13.479694)" />
    </g>
  </g>
  <metadata
     id="metadata63">
    <rdf:RDF>
      <cc:Work
         rdf:about="">
        <dc:title>Marsho New Logo</dc:title>
        <cc:license
           rdf:resource="http://creativecommons.org/licenses/by-nc-sa/4.0/" />
        <dc:creator>
          <cc:Agent>
            <dc:title>Asankilp</dc:title>
          </cc:Agent>
        </dc:creator>
        <dc:description>Marsho的全新可爱logo~</dc:description>
      </cc:Work>
      <cc:License
         rdf:about="http://creativecommons.org/licenses/by-nc-sa/4.0/">
        <cc:permits
           rdf:resource="http://creativecommons.org/ns#Reproduction" />
        <cc:permits
           rdf:resource="http://creativecommons.org/ns#Distribution" />
        <cc:requires
           rdf:resource="http://creativecommons.org/ns#Notice" />
        <cc:requires
           rdf:resource="http://creativecommons.org/ns#Attribution" />
        <cc:prohibits
           rdf:resource="http://creativecommons.org/ns#CommercialUse" />
        <cc:permits
           rdf:resource="http://creativecommons.org/ns#DerivativeWorks" />
        <cc:requires
           rdf:resource="http://creativecommons.org/ns#ShareAlike" />
      </cc:License>
    </rdf:RDF>
  </metadata>
</svg>
